<?xml version="1.0" encoding="UTF-8" standalone="no"?>
<!-- Created with Inkscape (http://www.inkscape.org/) -->

<svg
   width="210mm"
   height="297mm"
   viewBox="0 0 210 297"
   version="1.1"
   id="svg752"
   sodipodi:docname="logo.svg"
   xmlns:inkscape="http://www.inkscape.org/namespaces/inkscape"
   xmlns:sodipodi="http://sodipodi.sourceforge.net/DTD/sodipodi-0.dtd"
   xmlns="http://www.w3.org/2000/svg"
   xmlns:svg="http://www.w3.org/2000/svg">
  <sodipodi:namedview
     id="namedview54"
     pagecolor="#ffffff"
     bordercolor="#000000"
     borderopacity="0.25"
     inkscape:showpageshadow="2"
     inkscape:pageopacity="0.0"
     inkscape:pagecheckerboard="0"
     inkscape:deskcolor="#d1d1d1"
     inkscape:document-units="mm"
     showgrid="false" />
  <defs
     id="defs749">
    <clipPath
       clipPathUnits="userSpaceOnUse"
       id="clipPath128-4">
      <path
         d="M 0,1500 H 1500 V 0 H 0 Z"
         id="path126-1" />
    </clipPath>
  </defs>
  <g
     id="layer1"
     transform="matrix(0.62343519,0,0,0.62343519,42.255115,72.247622)">
    <g
       id="g124"
       clip-path="url(#clipPath128-4)"
       style="display:inline"
       transform="matrix(0.35277777,0,0,-0.35277777,-162.83673,341.97265)">
      <g
         id="g130"
         transform="translate(1141.7769,357.7554)"
         style="display:inline">
        <path
           d="m 0,0 c -12.716,-0.307 -124.909,-3.137 -148.002,-8.859 -16.39,-4.088 -46.195,3.145 -56.296,6.267 -5.161,1.626 -10.676,-1.282 -12.279,-6.466 -1.61,-5.177 1.281,-10.669 6.458,-12.279 1.35,-0.422 27.159,-8.345 50.275,-8.345 5.844,0 11.512,0.506 16.574,1.772 17.763,4.394 109.784,7.462 143.745,8.275 5.415,0.131 9.71,4.633 9.58,10.055 C 9.924,-4.157 5.369,0.077 0,0"
           style="fill:#231f20;fill-opacity:1;fill-rule:nonzero;stroke:none"
           id="path132" />
      </g>
      <g
         id="g134"
         transform="translate(1124.3364,683.7632)"
         style="display:inline">
        <path
           d="M 0,0 -360.422,-16.123"
           style="fill:#ed1c24;fill-opacity:1;fill-rule:nonzero;stroke:none"
           id="path136" />
      </g>
      <g
         id="g138"
         transform="translate(824.4092,673.0947)"
         style="display:inline">
        <path
           d="M 0,0 50.129,107.698"
           style="fill:#ed1c24;fill-opacity:1;fill-rule:nonzero;stroke:none"
           id="path140" />
      </g>
      <g
         id="g142"
         transform="translate(874.5381,672.5957)"
         style="display:inline">
        <path
           d="M 0,0 84.114,105.765"
           style="fill:#ed1c24;fill-opacity:1;fill-rule:nonzero;stroke:none"
           id="path144" />
      </g>
      <g
         id="g146"
         transform="translate(958.6519,676.3618)">
        <path
           d="M 0,0 58.231,84.375"
           style="fill:#ed1c24;fill-opacity:1;fill-rule:nonzero;stroke:none"
           id="path148" />
      </g>
      <g
         id="g150"
         transform="translate(1026.1792,679.376)">
        <path
           d="M 0,0 32.846,59.624"
           style="fill:#ed1c24;fill-opacity:1;fill-rule:nonzero;stroke:none"
           id="path152" />
      </g>
      <g
         id="g154"
         transform="translate(1026.1792,679.376)">
        <path
           d="M 0,0 40.189,-54.018"
           style="fill:#ed1c24;fill-opacity:1;fill-rule:nonzero;stroke:none"
           id="path156" />
      </g>
      <g
         id="g158"
         transform="translate(958.6519,676.3618)">
        <path
           d="M 0,0 52.775,-86.153"
           style="fill:#ed1c24;fill-opacity:1;fill-rule:nonzero;stroke:none"
           id="path160" />
      </g>
      <g
         id="g162"
         transform="translate(874.5381,672.5957)">
        <path
           d="M 0,0 38.315,-68.475"
           style="fill:#ed1c24;fill-opacity:1;fill-rule:nonzero;stroke:none"
           id="path164" />
      </g>
      <g
         id="g166"
         transform="translate(824.4092,673.0947)">
        <path
           d="M 0,0 24.552,-77.952"
           style="fill:#ed1c24;fill-opacity:1;fill-rule:nonzero;stroke:none"
           id="path168" />
      </g>
      <g
         id="g170"
         transform="translate(418.1382,667.6406)">
        <path
           d="M 0,0 H 316.478"
           style="fill:#ed1c24;fill-opacity:1;fill-rule:nonzero;stroke:none"
           id="path172" />
      </g>
      <g
         id="g174"
         transform="translate(664.2891,667.6406)">
        <path
           d="M 0,0 -38.279,102.345"
           style="fill:#ed1c24;fill-opacity:1;fill-rule:nonzero;stroke:none"
           id="path176" />
      </g>
      <g
         id="g178"
         transform="translate(598.3564,667.6406)">
        <path
           d="M 0,0 -21.981,103.679"
           style="fill:#ed1c24;fill-opacity:1;fill-rule:nonzero;stroke:none"
           id="path180" />
      </g>
      <g
         id="g182"
         transform="translate(535.3579,667.6406)">
        <path
           d="M 0,0 -50.704,65.714"
           style="fill:#ed1c24;fill-opacity:1;fill-rule:nonzero;stroke:none"
           id="path184" />
      </g>
      <g
         id="g186"
         transform="translate(535.3579,667.6406)">
        <path
           d="M 0,0 -50.704,-73.828"
           style="fill:#ed1c24;fill-opacity:1;fill-rule:nonzero;stroke:none"
           id="path188" />
      </g>
      <g
         id="g190"
         transform="translate(598.3564,667.6406)">
        <path
           d="M 0,0 -55.933,-85.594"
           style="fill:#ed1c24;fill-opacity:1;fill-rule:nonzero;stroke:none"
           id="path192" />
      </g>
      <g
         id="g194"
         transform="translate(664.2891,667.6406)">
        <path
           d="M 0,0 -43.072,-73.827"
           style="fill:#ed1c24;fill-opacity:1;fill-rule:nonzero;stroke:none"
           id="path196" />
      </g>
      <g
         id="g198"
         transform="translate(840.105,772.5317)">
        <path
           d="M 0,0 6.589,-1.533"
           style="fill:#ed1c24;fill-opacity:1;fill-rule:nonzero;stroke:none"
           id="path200" />
      </g>
      <g
         id="g202"
         transform="translate(1068.0806,639.5034)">
        <path
           d="m 0,0 -22.979,30.886 57.593,2.576 C 26.483,24.381 14.85,12.486 0,0 m -92.355,27.783 45.691,2.044 31.277,-42.039 c -11.23,-8.374 -23.843,-16.629 -37.696,-24.115 z m -201.994,32.989 v 10.301 c 10.256,9.109 44.753,38.203 82.297,53.696 l -39.304,-84.44 -42.993,-1.923 z m -24.466,24.467 c -3.038,0 -5.917,-0.626 -8.603,-1.642 -7.636,9.332 -39.242,43.015 -102.675,54.794 -32.028,51.317 -42.631,97.979 -31.451,138.709 9.169,33.405 31.419,55.904 47.133,68.245 -2.932,-30.646 -0.46,-58.619 6.991,-83.948 0.093,-0.606 0.316,-1.155 0.521,-1.734 5.971,-19.577 14.87,-37.597 27.067,-53.768 38.541,-51.097 97.596,-71.17 129.172,-78.597 -30.748,-18.081 -54.277,-39.208 -59.239,-43.799 -2.77,1.091 -5.763,1.74 -8.916,1.74 m -42.271,-142.935 c 7.13,5.151 13.007,10.476 17.804,15.592 v -28.225 c -3.527,3.078 -9.415,7.708 -17.804,12.633 M -633.57,18.321 h 82.195 l -34.613,-50.399 c -24.572,17.463 -39.626,37.476 -47.582,50.399 m 48.281,61.871 32.59,-42.237 h -76.834 c 9.754,11.309 24.927,27.214 44.244,42.237 m 242.007,-19.42 V 37.955 h -53.7 l -29.85,79.807 c 50.925,-11.233 76.725,-37.682 83.55,-45.761 z m -105.89,60.67 31.227,-83.487 h -43.827 l -17.992,84.864 c 1.364,0.041 2.718,0.116 4.092,0.116 9.411,0 18.183,-0.574 26.5,-1.493 m -50.245,-0.581 17.578,-82.906 h -46.058 l -41.442,53.71 c 20.265,13.423 43.926,24.722 69.922,29.196 m -42.888,-175.987 -2.644,1.206 c -8.874,3.346 -16.939,7.223 -24.406,11.378 l 41.8,60.863 h 39.69 l -46.009,-70.408 c -0.107,-0.164 -0.112,-0.356 -0.209,-0.524 -2.714,-0.827 -5.452,-1.664 -8.222,-2.515 m 36.903,10.719 40.989,62.728 h 43.529 l -31.733,-54.391 c -17.874,-0.584 -35.075,-3.742 -52.785,-8.337 m 123.777,-3.325 c -13.087,5.173 -29.314,9.443 -48.6,11.083 l 32.071,54.97 h 54.872 V -8.408 c -2.443,-5.285 -12.574,-24.191 -38.291,-39.277 -0.021,-0.012 -0.031,-0.034 -0.052,-0.047 m -169.11,262.328 c 0,34.912 16.942,62.22 50.359,81.164 10.639,6.032 21.351,10.238 30.35,13.133 -4.105,-8.013 -7.719,-16.714 -10.378,-26.321 -11.763,-42.516 -3.115,-89.845 25.561,-140.866 -6.676,0.526 -13.572,0.863 -20.829,0.863 -16.349,0 -31.953,-2.537 -46.661,-6.832 -18.769,24.081 -28.402,50.559 -28.402,78.859 m 76.175,178.424 c 15.991,19.668 37.029,29.443 56.311,26.111 9.228,-1.591 17.101,-6.059 23.222,-12.894 0.081,-0.108 0.193,-0.19 0.279,-0.296 2.339,-2.663 4.438,-5.648 6.219,-9.003 -3.601,-2.162 -7.754,-4.931 -11.182,-7.96 -5.791,-5.166 -8.901,-12.227 -10.45,-16.865 -8.068,-4.718 -27.223,-17.35 -44.267,-38.92 -7.631,-1.527 -24.855,-5.652 -43.808,-14.559 -0.752,16.814 1.626,47.261 23.676,74.386 m 182.849,54.964 c 44.908,0 70.848,-24.445 82.336,-38.986 -23.458,0.404 -41.581,-3.285 -43.113,-3.615 -0.243,-0.052 -0.421,-0.216 -0.656,-0.285 -0.347,-0.1 -0.693,-0.142 -1.029,-0.282 -0.203,-0.086 -0.358,-0.255 -0.556,-0.355 -0.09,-0.044 -0.167,-0.115 -0.255,-0.163 -0.584,-0.313 -1.13,-0.626 -1.629,-1.041 -0.195,-0.161 -0.438,-0.219 -0.622,-0.398 -5.39,-5.184 -10.67,-9.625 -15.879,-13.603 -8.219,21.045 -23.501,32.966 -43.5,32.966 -26.962,0 -42.652,-13.677 -50.859,-24.49 -2.04,5.315 -4.538,10.237 -7.526,14.653 8.681,10.997 33.62,35.599 83.288,35.599 m 180.276,-138.342 c -0.449,-13.566 -5.534,-26.089 -14.709,-36.986 -11.026,67.314 -56.653,95.533 -66.273,100.761 -1.91,4.45 -4.538,8.537 -7.894,12.232 -1.107,1.22 -2.27,2.364 -3.474,3.439 21.292,-1.053 45.943,-6.106 63.926,-21.502 18.745,-16.048 29.107,-37.167 28.424,-57.944 m 29.682,-100.155 c 0,-24.066 -14.315,-47.122 -36.497,-59.049 -10.609,1.668 -21.676,2.837 -33.189,3.434 15.075,17.215 27.786,44.699 27.786,88.565 0,1.763 -0.178,3.356 -0.222,5.078 6.303,5.211 11.807,10.903 16.322,17.058 9.755,-9.159 25.8,-28.281 25.8,-55.086 M -5.65,85.326 C 11.989,73.548 25.506,61.905 34.565,53.119 L -24.859,50.46 Z m -42.234,23.429 c 9.125,-4.137 17.676,-8.508 25.541,-13.04 l -25.5,-46.283 -42.286,-1.891 z m -57.648,19.226 c 13.969,-3.05 26.951,-7.034 39.093,-11.557 L -114.737,46.44 -172.43,43.86 Z m -216.489,99.706 c 20.347,0 37.497,5.331 50.819,11.804 48.943,23.783 78.79,77.329 82.126,107.868 17.56,-14.324 45.789,-46.429 45.789,-104.922 0,-42.444 -13.269,-73.169 -38.371,-88.854 -0.056,-0.034 -0.083,-0.094 -0.137,-0.129 -4.859,-0.627 -9.724,-1.638 -14.581,-2.855 -0.241,-0.073 -0.482,-0.105 -0.716,-0.197 -8.489,-2.173 -16.896,-5.124 -25.111,-8.64 l -3.548,0.827 c -0.18,0.042 -0.352,-0.016 -0.531,0.016 -0.207,0.038 -0.378,0.155 -0.589,0.179 -0.882,0.1 -89.053,10.849 -137.376,75.056 -5.492,7.297 -10.256,15.027 -14.327,23.158 20.785,-9.596 39.772,-13.311 56.553,-13.311 m -73.92,95.676 c 15.155,-12.671 39.327,-28.873 64.774,-29.804 16.547,-0.541 31.142,5.123 43.56,17.011 33.332,31.906 43.08,59.639 45.887,74.43 8.046,-1.368 19.719,-4.663 26.875,-12.547 5.093,-5.61 7.186,-12.828 6.396,-22.054 -1.886,-21.943 -27.342,-71.869 -71.335,-93.248 -33.911,-16.486 -70.764,-12.396 -109.552,12.024 -4.65,16.712 -6.871,34.786 -6.605,54.188 m 41.705,59.064 c 4.429,7.135 15.523,20.16 37.622,20.16 15.232,0 22.821,-11.989 26.651,-24.244 -13.353,-7.063 -26.024,-9.95 -37.861,-8.291 -11.024,1.553 -19.884,6.845 -26.412,12.375 m -32.437,-8.129 c 2.152,1.903 5.034,3.837 7.756,5.492 7.815,-9.835 23.826,-25.626 48.091,-29.142 3.264,-0.472 6.546,-0.71 9.859,-0.71 17.118,0 34.918,6.454 53.186,18.98 -5.71,-11.983 -15.719,-27.238 -33.402,-44.167 -8.551,-8.183 -18.173,-11.957 -29.221,-11.573 -27.229,0.972 -54.97,26.358 -63.888,35.255 0.571,5.015 1.238,10.081 2.104,15.249 0.343,1.605 2.152,7.612 5.515,10.616 m 157.426,-332.98 42.556,91.426 c 6.089,1.238 12.141,1.987 18.056,1.987 14.393,0 28.07,-1.059 41.103,-2.868 l -70.916,-89.167 z m 294.75,-0.209 c 0.386,1.132 0.585,2.302 0.545,3.482 -0.002,0.036 0.018,0.068 0.017,0.106 -0.009,0.186 -0.111,0.336 -0.13,0.519 -0.097,0.969 -0.32,1.909 -0.704,2.821 -0.168,0.398 -0.387,0.739 -0.604,1.108 -0.217,0.375 -0.346,0.785 -0.618,1.135 -2.687,3.454 -55.581,70.075 -155.896,94.881 18.486,16.443 29.768,39.926 29.768,64.326 0,37.555 -23.868,62.575 -35.511,72.559 3.524,8.558 5.508,17.613 5.814,26.948 0.882,26.767 -11.972,53.557 -35.273,73.51 -16.817,14.395 -37.682,21.366 -57.547,24.441 -0.096,0.224 -0.083,0.466 -0.197,0.685 -1.282,2.451 -32.183,59.989 -106.878,59.989 -54.574,0 -84.32,-26.073 -96.82,-40.843 -7.619,5.906 -16.49,9.999 -26.382,11.705 -26.357,4.572 -54.351,-7.819 -74.879,-33.075 -30.872,-37.977 -29.321,-80.753 -27.294,-97.124 -27.609,-17.657 -53.284,-46.694 -53.284,-93.686 0,-30.761 9.596,-59.555 28.541,-85.777 -68.768,-28.476 -113.751,-91.618 -116.155,-95.051 -0.326,-0.463 -0.544,-0.974 -0.781,-1.476 -0.078,-0.167 -0.184,-0.309 -0.253,-0.481 -0.431,-1.063 -0.629,-2.183 -0.67,-3.32 -0.005,-0.124 -0.072,-0.228 -0.072,-0.353 0,-0.138 0.073,-0.252 0.079,-0.388 0.044,-1.111 0.207,-2.22 0.635,-3.278 0.006,-0.017 0.042,-0.099 0.05,-0.12 0.01,-0.023 0.019,-0.044 0.029,-0.067 1.44,-3.529 24.141,-56.56 87.829,-88.102 -38.128,-11.053 -81.921,-21.104 -138.958,-21.104 -5.423,0 -9.817,-4.395 -9.817,-9.817 0,-5.423 4.394,-9.818 9.817,-9.818 73.752,0 125.66,15.946 171.456,30.02 33.233,10.208 61.932,19.028 91.775,19.028 61.872,0 92.903,-31.645 93.386,-32.143 l 20.617,-20.609 c 1.917,-1.917 4.429,-2.876 6.941,-2.876 2.511,0 5.027,0.959 6.944,2.876 3.831,3.835 3.831,10.055 -0.003,13.882 l -4.667,4.665 v 79.303 71.182 c 0,2.662 2.167,4.832 4.832,4.832 2.665,0 4.832,-2.17 4.832,-4.832 V -10.41 -82.421 c 0,-5.422 4.394,-9.817 9.816,-9.817 5.423,0 9.818,4.395 9.818,9.817 v 40.301 c 6.632,-7.07 15.286,-14.571 26.506,-21.395 4.64,-2.807 10.676,-1.35 13.491,3.29 2.815,4.633 1.342,10.669 -3.29,13.491 -24.275,14.757 -34.276,33.21 -36.707,38.357 v 27.125 l 44.435,1.988 21.432,-68.052 c 1.319,-4.188 5.192,-6.865 9.365,-6.865 0.974,0 1.971,0.146 2.952,0.452 5.17,1.626 8.039,7.141 6.413,12.318 l -19.859,63.055 30.466,1.362 35.349,-63.182 c 1.795,-3.214 5.139,-5.024 8.575,-5.024 1.626,0 3.267,0.399 4.786,1.25 4.732,2.646 6.419,8.629 3.773,13.361 l -30.534,54.577 62.433,2.793 44.004,-71.836 c -2.488,-1.125 -4.949,-2.273 -7.504,-3.335 -5.008,-2.079 -7.379,-7.823 -5.3,-12.832 1.572,-3.773 5.223,-6.051 9.073,-6.051 1.25,0 2.531,0.238 3.758,0.752 6.473,2.689 12.659,5.615 18.704,8.636 0.166,0.089 0.346,0.122 0.509,0.222 0.041,0.025 0.061,0.069 0.102,0.095 72.551,36.47 113.814,93.524 115.672,96.136 0.342,0.481 0.514,1.025 0.759,1.545 0.162,0.339 0.367,0.637 0.489,0.996"
           style="fill:#ffffff;fill-opacity:1;fill-rule:nonzero;stroke:none"
           id="path204" />
      </g>
      <g
         id="g206"
         transform="translate(517.7593,300.7236)">
        <path
           d="m 0,0 c -57.703,74.281 -157.485,55.229 -161.704,54.401 -5.318,-1.066 -8.762,-6.243 -7.696,-11.558 1.07,-5.316 6.277,-8.752 11.554,-7.693 0.925,0.169 92.021,17.579 142.342,-47.199 4.322,-5.561 9.28,-10.899 14.73,-15.869 1.882,-1.718 4.253,-2.561 6.611,-2.561 2.665,0 5.323,1.081 7.259,3.206 3.651,4.003 3.363,10.215 -0.64,13.866 C 7.827,-9.188 3.636,-4.679 0,0"
           style="fill:#ffffff;fill-opacity:1;fill-rule:nonzero;stroke:none"
           id="path208" />
      </g>
      <g
         id="g210"
         transform="translate(933.7212,360.5698)">
        <path
           d="m 0,0 -2.669,2.623 c -6.373,6.358 -75.914,75.899 -128.69,128.667 -3.835,3.835 -10.047,3.835 -13.882,0 -3.835,-3.835 -3.835,-10.047 0,-13.882 C -92.466,64.625 -22.91,-4.916 -16.543,-11.267 l 2.814,-2.768 c 10.093,-9.879 36.915,-36.117 37.022,-55.843 0.023,-4.878 -1.657,-8.844 -5.3,-12.487 -5.285,-5.284 -11.129,-7.646 -17.226,-7.746 -13.549,0.15 -26.259,11.755 -28.984,14.402 -5.656,5.899 -11.393,10.995 -15.823,14.912 -1.948,1.725 -3.535,3.121 -4.524,4.103 l -42.437,42.436 -13.882,-13.882 42.436,-42.436 c 1.189,-1.189 3.068,-2.869 5.4,-4.932 9.142,-8.084 30.556,-27.013 30.993,-41.293 0.107,-3.544 -1.219,-6.566 -4.165,-9.519 -4.532,-4.525 -9.165,-6.672 -14.127,-6.381 -10.109,0.46 -20.333,10.216 -23.416,13.929 -0.015,0.018 -0.038,0.024 -0.053,0.043 -2.731,3.6 -5.771,7.233 -9.503,10.962 l -51.057,51.08 -13.882,-13.882 51.057,-51.087 c 8.321,-8.307 13.36,-15.885 14.978,-22.503 1.626,-6.642 -0.245,-12.187 -6.058,-18.001 -9.679,-9.673 -24.098,-2.693 -28.981,0.136 -2.363,4.012 -5.18,7.855 -8.616,11.284 -11.865,11.865 -42.283,46.118 -42.59,46.463 -3.605,4.065 -9.81,4.433 -13.859,0.821 -4.054,-3.597 -4.422,-9.802 -0.821,-13.859 1.266,-1.419 31.108,-35.036 43.388,-47.315 5.062,-5.054 8.505,-11.397 9.448,-17.402 1.013,-6.405 -0.805,-11.827 -5.537,-16.567 -1.964,-1.963 -4.195,-2.661 -7.102,-2.807 -6.588,0.046 -22.096,4.725 -51.866,35.449 -3.766,3.896 -9.982,3.981 -13.879,0.215 -3.896,-3.773 -3.992,-9.986 -0.218,-13.882 26.871,-27.733 48.399,-41.278 65.809,-41.416 h 0.261 c 8.061,0 15.271,2.953 20.877,8.559 7.498,7.498 11.418,16.909 11.484,26.987 3.268,-0.716 6.676,-1.178 10.16,-1.178 8.859,0 18.07,2.768 25.924,10.63 7.745,7.739 11.869,16.574 12.287,25.955 3.388,-1.142 6.929,-2.037 10.729,-2.225 0.591,-0.031 1.181,-0.046 1.764,-0.046 9.91,0 19.313,4.18 27.282,12.156 6.756,6.749 10.177,15.056 9.901,23.999 -0.075,2.461 -0.469,4.899 -1.046,7.314 2.567,-0.496 5.206,-0.819 7.91,-0.857 h 0.606 c 11.505,0 21.882,4.541 30.84,13.499 7.386,7.378 11.106,16.29 11.052,26.476 C 42.774,-41.846 12.801,-12.524 0,0"
           style="fill:#ffffff;fill-opacity:1;fill-rule:nonzero;stroke:none"
           id="path212" />
      </g>
      <g
         id="g214"
         transform="translate(734.6313,208.7256)">
        <path
           d="m 0,0 c -10.619,-26.46 -45.033,-60.238 -61.369,-60.23 -2.071,0 -3.029,0.613 -3.831,1.534 -7.512,8.636 5.039,32.435 30.518,57.875 11.428,11.413 22.694,18.231 30.13,18.231 2.531,0 4.49,-0.79 6.347,-2.569 C 3.244,13.46 3.298,8.222 0,0 m -123.858,-31.139 c -12.29,12.287 10.262,45.865 38.057,73.69 4.171,4.168 9.681,9.672 15.664,14.941 0.253,0.248 0.577,0.379 0.807,0.659 0.031,0.038 0.054,0.073 0.084,0.111 9.871,8.584 20.898,16.333 29.31,16.333 2.93,0 5.246,-1.02 7.512,-3.298 3.624,-3.643 5.304,-7.577 5.289,-12.386 -0.07,-19.228 -26.691,-45.612 -38.061,-56.879 l -2.746,-2.722 c -1.392,-1.396 -2.899,-2.946 -4.514,-4.602 -10.906,-11.19 -29.156,-29.919 -42.459,-29.919 -3.325,0.007 -6.167,1.295 -8.943,4.072 m -45.143,37.52 c -11.432,11.42 9.943,43.073 36.185,69.357 26.257,26.215 42.36,33.839 52.223,24.72 3.724,-3.442 11.346,-10.565 -3.16,-28.87 -5.383,-4.784 -10.707,-9.931 -15.934,-15.154 -11.849,-11.862 -26.442,-28.237 -36.295,-45.151 -8.228,-6.927 -22.363,-15.558 -33.019,-4.902 m -36.037,40.634 c -5,5.001 0.621,16.467 4.422,22.856 7.386,12.425 18.76,24.55 24.877,30.671 l 2.515,2.523 c 8.28,8.337 22.139,22.289 30.533,22.289 1.059,0 2.366,-0.215 4.05,-1.818 1.733,-1.649 2.519,-3.582 2.55,-6.259 0.15,-12.088 -14.511,-32.22 -29.11,-46.816 l -3.498,-3.566 c -7.612,-7.808 -21.778,-22.35 -31.062,-22.342 -1.307,0 -3.091,0.276 -5.277,2.462 M -4.552,37.044 c -3,0 -5.988,-0.547 -8.954,-1.315 3.63,7.565 5.978,15.368 6.005,23.113 0.035,10.085 -3.666,18.936 -11.002,26.307 -5.914,5.936 -13.322,9.08 -21.433,9.08 -5.218,0 -10.444,-1.277 -15.656,-3.447 -0.297,11.188 -6.419,19.236 -11.675,24.094 -15.644,14.461 -33.716,9.734 -49.323,0.068 0.054,0.859 0.144,1.722 0.133,2.571 -0.095,7.945 -3.086,14.948 -8.647,20.24 -4.97,4.732 -11.052,7.233 -17.587,7.233 -16.566,0 -32.036,-15.577 -44.461,-28.087 l -2.466,-2.477 c -6.768,-6.765 -19.396,-20.256 -27.879,-34.521 -14.852,-24.988 -8.97,-39.223 -1.423,-46.77 5.377,-5.377 12.003,-8.214 19.159,-8.214 3.303,0 6.549,0.75 9.751,1.801 -3.529,-12.656 -2.408,-24.695 7.122,-34.221 7.199,-7.202 15.892,-10.768 25.261,-10.761 3.592,0 7.29,0.587 11.033,1.632 -1.42,-10.494 0.782,-20.324 8.854,-28.391 6.515,-6.52 14.193,-9.817 22.821,-9.825 h 0.004 c 9.9,0 19.672,4.559 28.703,10.85 -2.104,-9.949 -0.822,-19.515 6.194,-27.585 4.713,-5.423 11.16,-8.284 18.649,-8.284 h 0.004 c 28.796,0 68.13,44.009 79.584,72.548 8.057,20.079 2.9,30.848 -2.849,36.347 -5.484,5.246 -12.371,8.014 -19.922,8.014"
           style="fill:#231f20;fill-opacity:1;fill-rule:nonzero;stroke:none"
           id="path216" />
      </g>
      <g
         id="g218"
         transform="translate(674.106,434.3828)">
        <path
           d="m 0,0 c 0,42.813 67.259,91.607 99.587,115.053 7.002,5.085 12.54,9.096 16.245,12.164 22.195,18.369 68.843,29.337 124.793,29.337 43.18,0 78.852,-19.918 101.163,-36.615 27.995,-20.984 116.411,-21.322 126.144,-21.345 5.422,0.015 9.809,4.418 9.794,9.84 -0.016,5.415 -4.411,9.795 -9.817,9.795 -0.399,0.007 -0.622,0 -0.936,0 -35.258,0 -96.424,4.686 -113.412,17.425 -24.704,18.492 -64.349,40.534 -112.936,40.534 -61.281,0 -111.326,-12.333 -137.311,-33.846 -3.221,-2.661 -8.796,-6.711 -15.262,-11.397 C 50.524,103.717 -19.251,53.105 -19.634,0.437 c -0.449,-5.545 -3.639,-53.534 18.039,-77.279 8.221,-9.005 18.767,-13.568 31.338,-13.568 11.06,0 19.999,3.497 26.575,10.4 14.136,14.841 12.859,41.148 11.831,62.285 -0.399,8.23 -0.947,19.497 0.111,21.944 11.444,14.718 36.213,36.5 53.055,36.5 5.423,0 9.817,4.394 9.817,9.817 0,5.422 -4.394,9.817 -9.817,9.817 -28.132,0 -59.025,-31.822 -68.551,-44.078 -5.576,-7.155 -5.009,-18.814 -4.226,-34.95 0.801,-16.475 1.894,-39.047 -6.435,-47.79 -1.764,-1.848 -4.962,-4.311 -12.36,-4.311 -7.01,0 -12.356,2.278 -16.824,7.156 C -0.951,-48.457 -1.139,-13.191 -0.038,-0.882 -0.015,-0.59 0,-0.291 0,0"
           style="display:inline;fill:#231f20;fill-opacity:1;fill-rule:nonzero;stroke:none"
           id="path220" />
      </g>
    </g>
  </g>
</svg>
